# xmcd
#
# Track frame offsets:
# 150
# 18402
# 38992
# 54245
# 68547
# 83060
# 97025
# 127007
# 144222
# 163207
# 181237
# 201630
# 218942
#
# Disc length: 3128 seconds
#
#
# Revision: 1
# Processed by: cddbd v1.5.2PL0 Copyright (c) Steve Scherf et al.
# Submitted via: FreeRIP 2.945 
#
DISCID=b80c360d
DTITLE=Clube de Patifes - Do Palco ao Balcão
DYEAR=1900
DGENRE=Blues
TTITLE0=Sol no Topo
TTITLE1=Noite em Claro
TTITLE2=Barfly
TTITLE3=Aquela Velha Canção
TTITLE4=Franco Atirador
TTITLE5=Fele-me
TTITLE6=Do Palco ao Balcão
TTITLE7=Coração Gelado
TTITLE8=O Homen com Passos Prateados
TTITLE9=Branca de Neve
TTITLE10=Alma Suja
TTITLE11=Blues Song
TTITLE12=Seu Zico
EXTD=http://www.myspace.com/clubedepatifes
EXTT0=
EXTT1=
EXTT2=
EXTT3=
EXTT4=
EXTT5=
EXTT6=
EXTT7=
EXTT8=
EXTT9=
EXTT10=
EXTT11=
EXTT12=
PLAYORDER=
